<mxfile host="app.diagrams.net" modified="2023-04-25T09:17:37.238Z" agent="Mozilla/5.0 (Windows NT 10.0; Win64; x64) AppleWebKit/537.36 (KHTML, like Gecko) Chrome/112.0.0.0 Safari/537.36" etag="mvS0Bx9CaRkkPLxnvc83" version="21.2.1" type="github">
  <diagram name="第 1 页" id="J_GhGBVUVq65wwpw01NC">
    <mxGraphModel dx="819" dy="450" grid="1" gridSize="10" guides="1" tooltips="1" connect="1" arrows="1" fold="1" page="1" pageScale="1" pageWidth="827" pageHeight="1169" math="1" shadow="0">
      <root>
        <mxCell id="0" />
        <mxCell id="1" parent="0" />
        <mxCell id="SagN2Ig0a14yWZOSGHrz-19" style="edgeStyle=orthogonalEdgeStyle;rounded=0;orthogonalLoop=1;jettySize=auto;html=1;exitX=0.5;exitY=0;exitDx=0;exitDy=0;entryX=0.5;entryY=1;entryDx=0;entryDy=0;" edge="1" parent="1" source="SagN2Ig0a14yWZOSGHrz-1" target="SagN2Ig0a14yWZOSGHrz-2">
          <mxGeometry relative="1" as="geometry" />
        </mxCell>
        <mxCell id="SagN2Ig0a14yWZOSGHrz-20" style="rounded=0;orthogonalLoop=1;jettySize=auto;html=1;exitX=0.438;exitY=-0.067;exitDx=0;exitDy=0;entryX=0.5;entryY=1;entryDx=0;entryDy=0;exitPerimeter=0;" edge="1" parent="1" source="SagN2Ig0a14yWZOSGHrz-1" target="SagN2Ig0a14yWZOSGHrz-3">
          <mxGeometry relative="1" as="geometry" />
        </mxCell>
        <mxCell id="SagN2Ig0a14yWZOSGHrz-21" style="rounded=0;orthogonalLoop=1;jettySize=auto;html=1;exitX=0.581;exitY=0;exitDx=0;exitDy=0;entryX=0.5;entryY=1;entryDx=0;entryDy=0;exitPerimeter=0;" edge="1" parent="1" source="SagN2Ig0a14yWZOSGHrz-1" target="SagN2Ig0a14yWZOSGHrz-4">
          <mxGeometry relative="1" as="geometry" />
        </mxCell>
        <mxCell id="SagN2Ig0a14yWZOSGHrz-1" value="$$\{\}$$" style="text;html=1;strokeColor=none;fillColor=none;align=center;verticalAlign=middle;whiteSpace=wrap;rounded=0;" vertex="1" parent="1">
          <mxGeometry x="280" y="420" width="160" height="30" as="geometry" />
        </mxCell>
        <mxCell id="SagN2Ig0a14yWZOSGHrz-24" style="edgeStyle=orthogonalEdgeStyle;rounded=0;orthogonalLoop=1;jettySize=auto;html=1;exitX=0.5;exitY=0;exitDx=0;exitDy=0;entryX=0.5;entryY=1;entryDx=0;entryDy=0;" edge="1" parent="1" source="SagN2Ig0a14yWZOSGHrz-2" target="SagN2Ig0a14yWZOSGHrz-7">
          <mxGeometry relative="1" as="geometry" />
        </mxCell>
        <mxCell id="SagN2Ig0a14yWZOSGHrz-30" style="rounded=0;orthogonalLoop=1;jettySize=auto;html=1;exitX=0.438;exitY=0;exitDx=0;exitDy=0;entryX=0.544;entryY=1.067;entryDx=0;entryDy=0;entryPerimeter=0;exitPerimeter=0;" edge="1" parent="1" source="SagN2Ig0a14yWZOSGHrz-2" target="SagN2Ig0a14yWZOSGHrz-6">
          <mxGeometry relative="1" as="geometry" />
        </mxCell>
        <mxCell id="SagN2Ig0a14yWZOSGHrz-31" style="rounded=0;orthogonalLoop=1;jettySize=auto;html=1;exitX=0.55;exitY=0.033;exitDx=0;exitDy=0;entryX=0.45;entryY=1.033;entryDx=0;entryDy=0;entryPerimeter=0;exitPerimeter=0;" edge="1" parent="1" source="SagN2Ig0a14yWZOSGHrz-2" target="SagN2Ig0a14yWZOSGHrz-8">
          <mxGeometry relative="1" as="geometry" />
        </mxCell>
        <mxCell id="SagN2Ig0a14yWZOSGHrz-2" value="$$\{P_2\}$$" style="text;html=1;strokeColor=none;fillColor=none;align=center;verticalAlign=middle;whiteSpace=wrap;rounded=0;" vertex="1" parent="1">
          <mxGeometry x="280" y="320" width="160" height="30" as="geometry" />
        </mxCell>
        <mxCell id="SagN2Ig0a14yWZOSGHrz-22" style="edgeStyle=orthogonalEdgeStyle;rounded=0;orthogonalLoop=1;jettySize=auto;html=1;exitX=0.5;exitY=0;exitDx=0;exitDy=0;entryX=0.5;entryY=1;entryDx=0;entryDy=0;" edge="1" parent="1" source="SagN2Ig0a14yWZOSGHrz-3" target="SagN2Ig0a14yWZOSGHrz-6">
          <mxGeometry relative="1" as="geometry" />
        </mxCell>
        <mxCell id="SagN2Ig0a14yWZOSGHrz-32" style="rounded=0;orthogonalLoop=1;jettySize=auto;html=1;exitX=0.544;exitY=-0.033;exitDx=0;exitDy=0;entryX=0.444;entryY=1;entryDx=0;entryDy=0;entryPerimeter=0;exitPerimeter=0;" edge="1" parent="1" source="SagN2Ig0a14yWZOSGHrz-3" target="SagN2Ig0a14yWZOSGHrz-7">
          <mxGeometry relative="1" as="geometry" />
        </mxCell>
        <mxCell id="SagN2Ig0a14yWZOSGHrz-3" value="$$\{P_1\}$$" style="text;html=1;strokeColor=none;fillColor=none;align=center;verticalAlign=middle;whiteSpace=wrap;rounded=0;" vertex="1" parent="1">
          <mxGeometry x="160" y="320" width="160" height="30" as="geometry" />
        </mxCell>
        <mxCell id="SagN2Ig0a14yWZOSGHrz-26" style="edgeStyle=orthogonalEdgeStyle;rounded=0;orthogonalLoop=1;jettySize=auto;html=1;exitX=0.5;exitY=0;exitDx=0;exitDy=0;entryX=0.5;entryY=1;entryDx=0;entryDy=0;" edge="1" parent="1" source="SagN2Ig0a14yWZOSGHrz-4" target="SagN2Ig0a14yWZOSGHrz-8">
          <mxGeometry relative="1" as="geometry" />
        </mxCell>
        <mxCell id="SagN2Ig0a14yWZOSGHrz-33" style="rounded=0;orthogonalLoop=1;jettySize=auto;html=1;exitX=0.444;exitY=0;exitDx=0;exitDy=0;entryX=0.553;entryY=1.029;entryDx=0;entryDy=0;entryPerimeter=0;exitPerimeter=0;" edge="1" parent="1" source="SagN2Ig0a14yWZOSGHrz-4" target="SagN2Ig0a14yWZOSGHrz-7">
          <mxGeometry relative="1" as="geometry" />
        </mxCell>
        <mxCell id="SagN2Ig0a14yWZOSGHrz-4" value="$$\{P_3\}$$" style="text;html=1;strokeColor=none;fillColor=none;align=center;verticalAlign=middle;whiteSpace=wrap;rounded=0;" vertex="1" parent="1">
          <mxGeometry x="400" y="320" width="160" height="30" as="geometry" />
        </mxCell>
        <mxCell id="SagN2Ig0a14yWZOSGHrz-27" style="rounded=0;orthogonalLoop=1;jettySize=auto;html=1;exitX=0.5;exitY=0;exitDx=0;exitDy=0;entryX=0.425;entryY=1.067;entryDx=0;entryDy=0;entryPerimeter=0;" edge="1" parent="1" source="SagN2Ig0a14yWZOSGHrz-6" target="SagN2Ig0a14yWZOSGHrz-9">
          <mxGeometry relative="1" as="geometry" />
        </mxCell>
        <mxCell id="SagN2Ig0a14yWZOSGHrz-6" value="$$\{P_1,P_2\}$$" style="text;html=1;strokeColor=none;fillColor=none;align=center;verticalAlign=middle;whiteSpace=wrap;rounded=0;" vertex="1" parent="1">
          <mxGeometry x="160" y="230" width="160" height="30" as="geometry" />
        </mxCell>
        <mxCell id="SagN2Ig0a14yWZOSGHrz-28" style="edgeStyle=orthogonalEdgeStyle;rounded=0;orthogonalLoop=1;jettySize=auto;html=1;exitX=0.5;exitY=0;exitDx=0;exitDy=0;entryX=0.5;entryY=1;entryDx=0;entryDy=0;" edge="1" parent="1" source="SagN2Ig0a14yWZOSGHrz-7" target="SagN2Ig0a14yWZOSGHrz-9">
          <mxGeometry relative="1" as="geometry" />
        </mxCell>
        <mxCell id="SagN2Ig0a14yWZOSGHrz-7" value="$$\{P_1,P_3\}$$" style="text;html=1;strokeColor=none;fillColor=none;align=center;verticalAlign=middle;whiteSpace=wrap;rounded=0;" vertex="1" parent="1">
          <mxGeometry x="280" y="230" width="160" height="30" as="geometry" />
        </mxCell>
        <mxCell id="SagN2Ig0a14yWZOSGHrz-29" style="rounded=0;orthogonalLoop=1;jettySize=auto;html=1;exitX=0.5;exitY=0;exitDx=0;exitDy=0;entryX=0.556;entryY=1.1;entryDx=0;entryDy=0;entryPerimeter=0;" edge="1" parent="1" source="SagN2Ig0a14yWZOSGHrz-8" target="SagN2Ig0a14yWZOSGHrz-9">
          <mxGeometry relative="1" as="geometry" />
        </mxCell>
        <mxCell id="SagN2Ig0a14yWZOSGHrz-8" value="$$\{P_2,P_3\}$$" style="text;html=1;strokeColor=none;fillColor=none;align=center;verticalAlign=middle;whiteSpace=wrap;rounded=0;" vertex="1" parent="1">
          <mxGeometry x="400" y="230" width="160" height="30" as="geometry" />
        </mxCell>
        <mxCell id="SagN2Ig0a14yWZOSGHrz-9" value="$$\{P_1,P_2,P_3\}$$" style="text;html=1;strokeColor=none;fillColor=none;align=center;verticalAlign=middle;whiteSpace=wrap;rounded=0;" vertex="1" parent="1">
          <mxGeometry x="280" y="140" width="160" height="30" as="geometry" />
        </mxCell>
      </root>
    </mxGraphModel>
  </diagram>
</mxfile>
